HIERARCHY
ROOT Hips
{
 OFFSET 0.000000 0.000000 0.000000
 CHANNELS 6 Xposition Yposition Zposition Yrotation Xrotation Zrotation
 JOINT Chest
 {
  OFFSET 0.000000 14.067100 -0.020500
  CHANNELS 3 Yrotation Xrotation Zrotation
  JOINT Chest2
  {
   OFFSET 0.000000 9.717300 0.041800
   CHANNELS 3 Yrotation Xrotation Zrotation
   JOINT Chest3
   {
    OFFSET 0.000000 9.672600 0.000000
    CHANNELS 3 Yrotation Xrotation Zrotation
    JOINT Chest4
    {
     OFFSET 0.000000 9.662700 0.000000
     CHANNELS 3 Yrotation Xrotation Zrotation
     JOINT Neck
     {
      OFFSET 0.000000 14.815200 0.000000
      CHANNELS 3 Yrotation Xrotation Zrotation
      JOINT Head
      {
       OFFSET 0.000000 9.056800 0.088400
       CHANNELS 3 Yrotation Xrotation Zrotation
       End Site
       {
        OFFSET 0.000000 17.018200 0.046700
       }
      }
     }
     JOINT RightCollar
     {
      OFFSET -3.269500 9.872600 0.000000
      CHANNELS 3 Yrotation Xrotation Zrotation
      JOINT RightShoulder
      {
       OFFSET -15.850600 0.000000 0.000000
       CHANNELS 3 Yrotation Xrotation Zrotation
       JOINT RightElbow
       {
        OFFSET 0.000000 -29.117400 0.000000
        CHANNELS 3 Yrotation Xrotation Zrotation
        JOINT RightWrist
        {
         OFFSET 0.000000 -23.969300 0.014600
         CHANNELS 3 Yrotation Xrotation Zrotation
         End Site
         {
          OFFSET 0.000000 -18.039300 0.000000
         }
        }
       }
      }
     }
     JOINT LeftCollar
     {
      OFFSET 3.269500 9.872600 0.000000
      CHANNELS 3 Yrotation Xrotation Zrotation
      JOINT LeftShoulder
      {
       OFFSET 15.850600 0.000000 0.000000
       CHANNELS 3 Yrotation Xrotation Zrotation
       JOINT LeftElbow
       {
        OFFSET 0.000000 -29.117400 0.000000
        CHANNELS 3 Yrotation Xrotation Zrotation
        JOINT LeftWrist
        {
         OFFSET 0.000000 -23.969300 0.014600
         CHANNELS 3 Yrotation Xrotation Zrotation
         End Site
         {
          OFFSET 0.000000 -18.039300 0.000000
         }
        }
       }
      }
     }
    }
   }
  }
 }
 JOINT RightHip
 {
  OFFSET -11.600400 0.101300 0.010200
  CHANNELS 3 Yrotation Xrotation Zrotation
  JOINT RightKnee
  {
   OFFSET 0.000000 -45.913300 -0.001400
   CHANNELS 3 Yrotation Xrotation Zrotation
   JOINT RightAnkle
   {
    OFFSET 0.000000 -46.966900 0.018600
    CHANNELS 3 Yrotation Xrotation Zrotation
    JOINT RightToe
    {
     OFFSET 0.000000 -10.064300 17.850900
     CHANNELS 3 Yrotation Xrotation Zrotation
     End Site
     {
      OFFSET 0.000000 -1.607600 6.976100
     }
    }
   }
  }
 }
 JOINT LeftHip
 {
  OFFSET 11.600400 0.101300 0.010200
  CHANNELS 3 Yrotation Xrotation Zrotation
  JOINT LeftKnee
  {
   OFFSET 0.000000 -45.913300 -0.001400
   CHANNELS 3 Yrotation Xrotation Zrotation
   JOINT LeftAnkle
   {
    OFFSET 0.000000 -46.966900 0.018600
    CHANNELS 3 Yrotation Xrotation Zrotation
    JOINT LeftToe
    {
     OFFSET 0.000000 -10.064300 17.850900
     CHANNELS 3 Yrotation Xrotation Zrotation
     End Site
     {
      OFFSET 0.000000 -1.607600 6.976100
     }
    }
   }
  }
 }
}
MOTION
Frames: 15
Frame Time: 0.008333
-255.830030 61.530403 -6.696795 168.074767 -34.398752 0.259757 -5.571449 14.091876 3.558197 -3.341900 8.033809 2.340699 -4.183248 10.066885 2.842576 -3.293571 8.031728 2.348632 -2.312714 31.845591 -8.899179 -2.799921 23.421351 -15.432459 13.751736 8.216578 -5.865676 4.705114 -28.128758 -11.324556 31.038899 -56.070894 -20.739376 8.373303 0.139480 -37.928213 -5.167198 1.059934 -5.474481 -4.023613 -39.361857 -3.630170 113.977462 -54.409943 -155.663956 4.974095 -6.155547 56.833054 20.770921 -49.073491 -24.617474 -104.024219 65.157318 -91.116993 8.351128 -3.761651 -0.525320 0.047084 -0.355237 0.031105 -2.464045 -50.463825 13.841126 106.847380 81.492262 106.126059 -5.366114 -9.569141 -1.981783 0.106646 0.272297 0.050516
-255.828793 61.532571 -6.702814 168.074163 -34.386213 0.285912 -5.540832 14.080417 3.572103 -3.350275 8.025501 2.327706 -4.169532 10.062220 2.845758 -3.280143 8.025287 2.350343 -2.139718 31.781891 -9.035909 -2.579854 23.332308 -15.685617 13.803427 8.160324 -5.832019 4.629152 -28.012709 -11.327531 31.051448 -56.113158 -20.761212 8.368584 0.141264 -37.941407 -5.072488 1.084440 -5.455983 -3.765723 -39.320128 -3.711711 114.721521 -54.373786 -156.240109 4.928686 -6.153585 56.859915 20.810712 -49.078357 -24.659064 -104.051008 65.162462 -91.150003 8.339045 -3.765637 -0.518047 0.045021 -0.360861 0.031380 -2.439595 -50.470808 13.804333 106.817443 81.492067 106.095528 -5.363603 -9.569484 -1.984890 0.106622 0.273164 0.049953
-255.830162 61.534201 -6.708825 168.070728 -34.371448 0.330098 -5.507767 14.064583 3.569637 -3.361682 8.016355 2.315740 -4.024254 10.040275 2.881206 -3.397647 8.028484 2.341106 -1.978752 31.722610 -9.178763 -2.382025 23.250083 -15.932815 13.864140 8.099988 -5.813085 4.551158 -27.864485 -11.307340 31.074449 -56.170040 -20.823002 8.357276 0.144777 -37.952088 -4.974348 1.105224 -5.441824 -3.516803 -39.276781 -3.802014 115.409066 -54.329035 -156.773507 4.884552 -6.151344 56.890087 20.867186 -49.078327 -24.726034 -104.077678 65.168533 -91.187883 8.334716 -3.782786 -0.502493 0.035202 -0.355355 0.026877 -2.389881 -50.479929 13.739647 106.766914 81.493474 106.044207 -5.364919 -9.565903 -1.986685 0.109388 0.271346 0.050619
-255.835519 61.535484 -6.715363 168.071690 -34.356037 0.394356 -5.502891 14.044581 3.524366 -3.258388 8.008252 2.353758 -4.019081 10.023716 2.872933 -3.297864 8.007448 2.345732 -1.985039 31.681705 -9.296569 -2.203757 23.174172 -16.171625 13.741681 8.054251 -5.785487 4.498112 -27.702638 -11.269652 31.067408 -56.265831 -20.789610 8.380658 0.176752 -38.037688 -5.045384 1.135050 -5.408166 -3.288562 -39.231511 -3.895487 116.060140 -54.284415 -157.273471 4.847927 -6.147450 56.922326 20.943662 -49.071370 -24.826913 -104.119667 65.180496 -91.248921 8.331262 -3.818750 -0.477208 0.019786 -0.337917 0.019482 -2.312151 -50.494108 13.638041 106.714137 81.487806 105.987461 -5.376442 -9.552422 -1.980565 0.108056 0.260614 0.050178
-255.835068 61.535778 -6.719517 168.062425 -34.335964 0.445748 -5.446907 14.024400 3.528445 -3.245416 7.997381 2.348143 -3.983353 10.013087 2.870653 -3.237139 7.994546 2.346212 -1.937214 31.638338 -9.413975 -2.041979 23.103646 -16.399067 13.687513 7.996008 -5.770203 4.430918 -27.552860 -11.227612 31.072677 -56.324944 -20.827027 8.378659 0.183461 -38.059708 -5.056761 1.153043 -5.376761 -3.080484 -39.187871 -3.989187 116.691813 -54.247352 -157.753574 4.823759 -6.138250 56.958010 21.026083 -49.079552 -24.911712 -104.166978 65.182253 -91.298053 8.324468 -3.828076 -0.473322 0.027616 -0.339471 0.019000 -2.249290 -50.508210 13.565754 106.633901 81.482953 105.912471 -5.388907 -9.551048 -1.987622 0.118734 0.259887 0.055741
-255.831182 61.535605 -6.722542 168.048427 -34.315251 0.491921 -5.407363 14.002881 3.520593 -3.264683 7.991584 2.334986 -3.884264 10.007736 2.876211 -3.209846 7.987499 2.344242 -1.865647 31.595309 -9.526528 -1.894983 23.038318 -16.609249 13.666522 7.926337 -5.763172 4.361986 -27.397727 -11.178416 31.081022 -56.377961 -20.887061 8.373159 0.186461 -38.058547 -5.042307 1.164535 -5.345236 -2.894166 -39.150088 -4.078665 117.316244 -54.220690 -158.224982 4.811171 -6.121887 56.999468 21.098396 -49.090608 -24.979901 -104.195185 65.178266 -91.326394 8.325703 -3.832236 -0.478462 0.029993 -0.341436 0.024955 -2.188069 -50.522616 13.505431 106.576659 81.483628 105.860449 -5.389174 -9.555445 -1.990763 0.121956 0.263524 0.055970
-255.824723 61.536424 -6.726770 168.052776 -34.304813 0.525251 -5.392825 13.989352 3.502854 -3.140557 7.991735 2.360931 -3.913295 9.998359 2.865055 -3.182880 7.981645 2.340832 -1.800874 31.554952 -9.628980 -1.761534 22.977026 -16.800527 13.645287 7.848298 -5.759992 4.294150 -27.236714 -11.125021 31.098872 -56.433387 -20.926253 8.370218 0.200243 -38.098382 -5.033826 1.173876 -5.312353 -2.735393 -39.121004 -4.155899 117.935743 -54.203943 -158.683477 4.802851 -6.102615 57.046214 21.141393 -49.089928 -25.035999 -104.228384 65.183281 -91.363844 8.328725 -3.843874 -0.469661 0.024615 -0.343564 0.019118 -2.149077 -50.525960 13.455340 106.496943 81.485041 105.780418 -5.384106 -9.555542 -1.993374 0.113395 0.267649 0.056061
-255.818325 61.539038 -6.733868 168.067316 -34.310436 0.561801 -5.302678 14.001588 3.528001 -3.186867 7.975904 2.333345 -3.857074 9.994758 2.860091 -3.156452 7.976588 2.336671 -1.741659 31.516835 -9.722797 -1.639396 22.919032 -16.975703 13.628307 7.767320 -5.760125 4.228850 -27.074720 -11.070897 31.118984 -56.481231 -20.965481 8.390432 0.216508 -38.097966 -5.026785 1.182425 -5.280594 -2.606647 -39.100405 -4.217883 118.550353 -54.193919 -159.125333 4.794135 -6.082688 57.095486 21.177691 -49.070707 -25.094648 -104.286390 65.205294 -91.430899 8.318042 -3.871964 -0.453929 0.011147 -0.340890 0.011257 -2.110648 -50.512587 13.394533 106.449647 81.492119 105.729689 -5.381569 -9.558394 -1.992245 0.108682 0.270973 0.052930
-255.815475 61.538942 -6.737605 168.076591 -34.298892 0.617899 -5.242810 13.993250 3.514291 -3.224216 7.963823 2.314983 -3.778004 9.995142 2.855446 -3.130475 7.971751 2.331742 -1.686738 31.480516 -9.808941 -1.526096 22.863612 -17.136606 13.614964 7.688538 -5.761988 4.173246 -26.920665 -11.022528 31.131618 -56.514354 -21.003179 8.377195 0.221486 -38.161107 -5.016744 1.191569 -5.250285 -2.504059 -39.086376 -4.269657 119.161105 -54.188224 -159.558126 4.783262 -6.060335 57.148868 21.246322 -49.068084 -25.184040 -104.329664 65.207343 -91.481188 8.296877 -3.887189 -0.454140 0.026834 -0.339531 0.015394 -2.073343 -50.508904 13.339964 106.404096 81.510072 105.656762 -5.392915 -9.566127 -1.998333 0.131680 0.280672 0.067212
-255.803255 61.539392 -6.740198 168.079755 -34.294227 0.642686 -5.184222 13.995673 3.527878 -3.127964 7.964737 2.321524 -3.817917 9.981297 2.846524 -3.105681 7.967412 2.325815 -1.635039 31.445169 -9.887944 -1.419438 22.809421 -17.284429 13.600211 7.613343 -5.765340 4.131942 -26.780562 -10.986318 31.189644 -56.518636 -20.999741 8.320911 0.229568 -38.305160 -5.002841 1.201933 -5.221929 -2.417772 -39.078311 -4.315741 119.765184 -54.184217 -159.987411 4.770326 -6.035163 57.203084 21.282319 -49.072154 -25.217927 -104.373553 65.204895 -91.531450 8.303292 -3.890320 -0.457696 0.020005 -0.349383 0.021630 -2.069202 -50.506113 13.332276 106.399084 81.515455 105.637392 -5.397246 -9.570800 -2.000804 0.130682 0.284690 0.067394
-255.798380 61.539225 -6.742861 168.102337 -34.286585 0.687151 -5.146910 13.992943 3.512265 -3.082264 7.964531 2.318863 -3.811034 9.973745 2.837525 -3.082278 7.964523 2.318936 -1.585382 31.410923 -9.959829 -1.317465 22.756733 -17.419428 13.583123 7.538177 -5.766712 4.103300 -26.653450 -10.968710 31.206707 -56.534014 -21.000624 8.297248 0.241362 -38.369867 -4.986238 1.213089 -5.194898 -2.341248 -39.075473 -4.357048 120.352253 -54.179864 -160.408787 4.757384 -6.009401 57.247470 21.323019 -49.075765 -25.281787 -104.396141 65.190356 -91.569793 8.274533 -3.853081 -0.470043 0.047462 -0.393140 0.037870 -2.041382 -50.510721 13.272979 106.395111 81.526573 105.621479 -5.422612 -9.591701 -2.016056 0.158111 0.306443 0.085338
-255.785536 61.536837 -6.740039 168.102067 -34.264349 0.707046 -5.115561 13.974095 3.515277 -3.026615 7.970312 2.322603 -3.782659 9.971661 2.829428 -3.059465 7.963025 2.312043 -1.537629 31.377542 -10.026087 -1.219826 22.705225 -17.544196 13.567191 7.460600 -5.765391 4.085421 -26.534939 -10.973472 31.188869 -56.556835 -20.989912 8.277617 0.257377 -38.403152 -4.966111 1.222276 -5.169330 -2.267734 -39.074805 -4.399095 120.906198 -54.178976 -160.807748 4.744394 -5.985568 57.272844 21.343581 -49.100740 -25.305341 -104.409144 65.186856 -91.598366 8.287980 -3.889953 -0.457996 0.027379 -0.362128 0.026941 -2.025812 -50.531327 13.254236 106.329650 81.531194 105.551360 -5.387177 -9.557811 -2.003922 0.124108 0.283346 0.066769
-255.782978 61.536639 -6.741595 168.129566 -34.258179 0.752608 -5.073903 13.973933 3.498436 -3.021479 7.965457 2.310866 -3.808432 9.963217 2.825458 -2.988008 7.970484 2.292638 -1.491746 31.344321 -10.089035 -1.125976 22.653824 -17.662924 13.559467 7.386877 -5.764199 4.068901 -26.424649 -10.996497 31.154240 -56.581527 -20.956146 8.260018 0.277393 -38.437186 -4.938177 1.230563 -5.147895 -2.191070 -39.070928 -4.444520 121.421812 -54.180484 -161.179277 4.730624 -5.963276 57.273935 21.382595 -49.090977 -25.384779 -104.437233 65.200788 -91.643637 8.273695 -3.910633 -0.447335 0.017440 -0.354567 0.024213 -2.010239 -50.530118 13.196442 106.270133 81.541950 105.467436 -5.397158 -9.546782 -2.010318 0.138898 0.281279 0.075264
-255.778804 61.536207 -6.741614 168.148478 -34.251040 0.790303 -5.025627 13.972479 3.492071 -3.018170 7.960425 2.299667 -3.755806 9.965107 2.816875 -2.994850 7.964292 2.293349 -1.447493 31.311133 -10.148971 -1.035302 22.602125 -17.776073 13.559604 7.321851 -5.763332 4.049216 -26.322246 -11.033560 31.120087 -56.607245 -20.913510 8.287084 0.298095 -38.412364 -4.900120 1.243859 -5.133512 -2.108997 -39.065214 -4.490407 121.900941 -54.179704 -161.530742 4.717284 -5.938871 57.255229 21.420586 -49.082624 -25.453864 -104.456048 65.211680 -91.670735 8.273079 -3.924342 -0.438462 0.020652 -0.349418 0.017188 -2.024062 -50.522166 13.176242 106.198451 81.552801 105.357405 -5.409124 -9.543479 -2.016173 0.151174 0.287617 0.081895
-255.773544 61.535509 -6.740152 168.159191 -34.242628 0.821239 -4.984772 13.965957 3.487794 -2.999813 7.958917 2.294073 -3.708291 9.966147 2.808352 -2.999783 7.958871 2.294109 -1.405333 31.277377 -10.205191 -0.948717 22.548901 -17.882303 13.562287 7.264234 -5.762535 4.028762 -26.223237 -11.081891 31.111489 -56.626867 -20.889791 8.304009 0.299387 -38.405082 -4.857149 1.263875 -5.127033 -2.018743 -39.063982 -4.537010 122.339969 -54.178954 -161.860211 4.705013 -5.909053 57.228137 21.446988 -49.085624 -25.498665 -104.460951 65.207079 -91.686051 8.271701 -3.925620 -0.438206 0.027388 -0.351344 0.015734 -1.995434 -50.528888 13.126120 106.141931 81.555759 105.298881 -5.403126 -9.536456 -2.017435 0.145536 0.288235 0.078907
